<?xml version="1.0" encoding="iso-8859-1"?>
<!-- Generator: Adobe Illustrator 20.1.0, SVG Export Plug-In . SVG Version: 6.00 Build 0)  -->
<svg version="1.1" id="Man-avatar-d-6" xmlns="http://www.w3.org/2000/svg" xmlns:xlink="http://www.w3.org/1999/xlink" x="0px"
	 y="0px" viewBox="0 0 28 32" style="enable-background:new 0 0 28 32;" xml:space="preserve">
<g>
	<path d="M22.196,22.02L18,21.18v-1.281c2.279-0.465,4-2.484,4-4.899V1c0-0.552-0.448-1-1-1H7C6.448,0,6,0.448,6,1v14
		c0,2.414,1.721,4.434,4,4.899v1.281L5.804,22.02C3.796,22.421,0,24.396,0,29v2c0,0.552,0.448,1,1,1h26c0.552,0,1-0.448,1-1v-2
		C28,24.396,24.204,22.421,22.196,22.02z M18.509,23.322L15,28v-3.133c1.2-0.318,2.016-1.152,2.468-1.754L18.509,23.322z M12,20h4
		v1.725C15.752,22.108,15.063,23,14,23c-1.063,0-1.752-0.893-2-1.275V20z M20,2v6.923c-3.026-0.425-5.27-2.607-5.293-2.63
		c-0.289-0.289-0.726-0.374-1.101-0.212L8,8.484V2H20z M8,15v-4.341l5.809-2.489c0.979,0.819,3.264,2.456,6.191,2.775V15
		c0,1.654-1.346,3-3,3h-6C9.346,18,8,16.654,8,15z M10.532,23.113c0.452,0.602,1.268,1.436,2.468,1.754V28l-3.509-4.679
		L10.532,23.113z M2,29c0-4.098,4.028-4.984,4.196-5.02l1.121-0.224L12,30H2V29z M26,30H16l4.683-6.244l1.121,0.224
		C21.975,24.015,26,24.867,26,29V30z"/>
	<rect x="20" y="27" width="3" height="2"/>
	<rect x="13" y="12" width="2" height="3"/>
</g>
</svg>
