<?xml version="1.0" encoding="iso-8859-1"?>
<!-- Generator: Adobe Illustrator 20.1.0, SVG Export Plug-In . SVG Version: 6.00 Build 0)  -->
<svg version="1.1" id="Man-avatar-a-10" xmlns="http://www.w3.org/2000/svg" xmlns:xlink="http://www.w3.org/1999/xlink" x="0px"
	 y="0px" viewBox="0 0 28 32" style="enable-background:new 0 0 28 32;" xml:space="preserve">
<g>
	<path d="M22.196,22.02L18,21.18v-1.281c2.279-0.465,4-2.484,4-4.899V1c0-0.552-0.448-1-1-1h-7C6.091,0,6,4.796,6,5v10
		c0,2.414,1.721,4.434,4,4.899v1.281L5.804,22.02C3.796,22.421,0,24.396,0,29v2c0,0.552,0.448,1,1,1h26c0.552,0,1-0.448,1-1v-2
		C28,24.396,24.204,22.421,22.196,22.02z M19.972,23.614L14,29.586l-5.972-5.972l2.279-0.456C10.767,24.074,11.827,25,14,25
		s3.233-0.926,3.693-1.842L19.972,23.614z M16,21.975C15.988,22.152,15.832,23,14,23s-1.988-0.848-2-1.025V20h4V21.975z M8,5.018
		C8.004,4.895,8.18,2,14,2h6v6.674l-5.725-1.636c-0.349-0.099-0.725-0.003-0.982,0.254C12.174,8.412,9.625,8.833,8,8.957V5.018z
		 M8,15v-4.036c1.548-0.1,4.453-0.473,6.246-1.853L20,10.754V15c0,1.654-1.346,3-3,3h-6C9.346,18,8,16.654,8,15z M2,29
		c0-3.292,2.596-4.509,3.706-4.88l5.88,5.88H2V29z M26,30h-9.586l5.883-5.883C23.409,24.48,26,25.682,26,29V30z"/>
	<rect x="13" y="12" width="2" height="3"/>
</g>
</svg>
