<?xml version="1.0" encoding="iso-8859-1"?>
<!-- Generator: Adobe Illustrator 20.1.0, SVG Export Plug-In . SVG Version: 6.00 Build 0)  -->
<svg version="1.1" id="Women-avatar-c-6" xmlns="http://www.w3.org/2000/svg" xmlns:xlink="http://www.w3.org/1999/xlink" x="0px"
	 y="0px" viewBox="0 0 28 32" style="enable-background:new 0 0 28 32;" xml:space="preserve">
<g>
	<path d="M22.196,22.02L18,21.18v-1.604c0.24-0.106,0.469-0.233,0.688-0.374c0.86,0.949,2.315,1.998,4.11,1.998
		c0.484,0,0.992-0.077,1.519-0.252c0.274-0.091,0.496-0.298,0.606-0.565c0.111-0.267,0.101-0.57-0.028-0.829
		C24.886,19.536,24,17.73,24,16V7c0-0.055-0.004-0.11-0.014-0.165C23.975,6.767,22.746,0,14,0S4.025,6.767,4.014,6.835
		C4.004,6.89,4,6.945,4,7v9c0,1.73-0.886,3.536-0.895,3.554c-0.129,0.259-0.139,0.562-0.028,0.829
		c0.111,0.267,0.332,0.474,0.606,0.565c0.527,0.176,1.035,0.252,1.519,0.252c1.795,0,3.25-1.05,4.11-1.998
		C9.531,19.343,9.76,19.471,10,19.576v1.604L5.804,22.02C3.796,22.421,0,24.396,0,29v2c0,0.552,0.448,1,1,1h26c0.552,0,1-0.448,1-1
		v-2C28,24.396,24.204,22.421,22.196,22.02z M10.655,24.127l1.285,3.854L9.37,25.84L10.655,24.127z M17.345,24.127l1.285,1.713
		l-2.57,2.142L17.345,24.127z M5.405,19.194C5.695,18.353,6,17.186,6,16V7.098C6.143,6.448,7.365,2,14,2
		c6.649,0,7.862,4.466,8,5.097V16c0,1.186,0.305,2.353,0.595,3.194c-1.162-0.082-2.035-0.89-2.466-1.38
		C20.677,17.011,21,16.043,21,15v-5c0-0.552-0.448-1-1-1c-3.387,0-5.1-2.455-5.168-2.555c-0.279-0.42-0.828-0.565-1.279-0.34l-6,3
		C7.214,9.275,7,9.621,7,10v5c0,1.043,0.323,2.011,0.872,2.814C7.441,18.304,6.567,19.112,5.405,19.194z M9,15v-4.382l4.734-2.367
		c0.833,0.901,2.582,2.386,5.266,2.693V15c0,1.654-1.346,3-3,3h-4C10.346,18,9,16.654,9,15z M16,20v1.837l-2,6l-2-6V20H16z M2,29
		c0-4.098,4.028-4.984,4.196-5.02l2.434-0.487L7.2,25.4c-0.32,0.426-0.25,1.027,0.16,1.368L11.238,30H2V29z M26,30h-9.238
		l3.878-3.232c0.409-0.341,0.479-0.942,0.16-1.368l-1.43-1.906l2.434,0.487C21.975,24.015,26,24.867,26,29V30z"/>
	<rect x="13" y="12" width="2" height="3"/>
</g>
</svg>
